<?xml version="1.0" encoding="UTF-8" standalone="no"?>
<!-- Created with Inkscape (http://www.inkscape.org/) -->

<svg
   xmlns:dc="http://purl.org/dc/elements/1.1/"
   xmlns:cc="http://creativecommons.org/ns#"
   xmlns:rdf="http://www.w3.org/1999/02/22-rdf-syntax-ns#"
   xmlns:svg="http://www.w3.org/2000/svg"
   xmlns="http://www.w3.org/2000/svg"
   xmlns:sodipodi="http://sodipodi.sourceforge.net/DTD/sodipodi-0.dtd"
   xmlns:inkscape="http://www.inkscape.org/namespaces/inkscape"
   width="610mm"
   height="100mm"
   viewBox="0 0 610 100"
   version="1.1"
   id="svg8"
   inkscape:version="0.92.4 (5da689c313, 2019-01-14)"
   sodipodi:docname="sociomata name white.svg">
  <defs
     id="defs2" />
  <sodipodi:namedview
     id="base"
     pagecolor="#ffffff"
     bordercolor="#666666"
     borderopacity="1.0"
     inkscape:pageopacity="0.0"
     inkscape:pageshadow="2"
     inkscape:zoom="0.35"
     inkscape:cx="1384.2857"
     inkscape:cy="560"
     inkscape:document-units="mm"
     inkscape:current-layer="layer1"
     showgrid="false"
     inkscape:window-width="1920"
     inkscape:window-height="1017"
     inkscape:window-x="-8"
     inkscape:window-y="-8"
     inkscape:window-maximized="1" />
  <metadata
     id="metadata5">
    <rdf:RDF>
      <cc:Work
         rdf:about="">
        <dc:format>image/svg+xml</dc:format>
        <dc:type
           rdf:resource="http://purl.org/dc/dcmitype/StillImage" />
        <dc:title></dc:title>
      </cc:Work>
    </rdf:RDF>
  </metadata>
  <g
     inkscape:label="Layer 1"
     inkscape:groupmode="layer"
     id="layer1"
     transform="translate(0,-197)">
    <path
       style="fill:#ffffff;stroke-width:0.03527777"
       inkscape:connector-curvature="0"
       d="m 209.49372,203.95785 c -1.83629,0.79293 -2.62922,2.54572 -2.62922,5.75918 0,3.58908 1.08508,5.25842 3.92293,6.05133 2.92131,0.83467 6.21829,0.33385 7.88759,-1.16851 1.16854,-1.04334 1.33546,-1.41896 1.46066,-4.04815 0.20863,-3.756 -0.58425,-5.7592 -2.58746,-6.59385 -1.83626,-0.79295 -6.30174,-0.79295 -8.0545,0 z"
       id="path12-5"
       inkscape:export-xdpi="600"
       inkscape:export-ydpi="600" />
    <path
       style="fill:#ffffff;stroke-width:0.03527777"
       inkscape:connector-curvature="0"
       d="m 509.84829,209.88397 c -0.79301,0.41734 -1.87802,1.37721 -2.37882,2.17014 -0.87641,1.29372 -0.95991,1.87798 -0.95991,7.38677 v 6.00961 l -3.42209,0.042 c -4.88278,0.0421 -6.9695,0.66773 -8.138,2.42055 -1.75279,2.58744 -1.00158,6.1765 1.54411,7.72063 0.8764,0.50082 2.25358,0.66773 5.59231,0.66773 h 4.42367 v 20.19894 c 0,20.78318 0.16682,23.3289 1.71112,26.33371 2.17011,4.17333 5.0497,5.84265 11.35139,6.55213 5.34191,0.58424 8.2215,-0.0834 10.85069,-2.54574 1.50241,-1.41894 1.66931,-1.79452 1.66931,-3.50559 0,-3.54736 -2.12839,-5.30015 -5.42531,-4.5072 -4.2568,1.08506 -7.26159,0.0418 -8.0128,-2.75438 -0.2921,-1.00164 -0.45907,-8.55535 -0.45907,-20.69973 V 236.3014 h 6.21829 6.25998 l 1.41891,-1.37719 c 1.83632,-1.75279 2.29532,-3.92291 1.25201,-6.00958 -1.41891,-2.83788 -2.29539,-3.17173 -9.0978,-3.38042 l -6.05139,-0.20861 v -5.67576 c 0,-4.59064 -0.12521,-5.96783 -0.75121,-7.09466 -1.46061,-2.92132 -4.841,-4.08985 -7.59539,-2.67091 z"
       id="path14-5"
       inkscape:export-xdpi="600"
       inkscape:export-ydpi="600" />
    <path
       style="fill:#ffffff;stroke-width:0.03527777"
       inkscape:connector-curvature="0"
       d="m 27.369589,223.82291 c -7.3868,1.08504 -13.93893,5.46704 -16.776801,11.18449 -1.2519899,2.58747 -1.3354699,3.0048 -1.3354699,7.34508 0,4.1316 0.12522,4.84105 1.1268099,7.01119 2.54572,5.42532 7.845871,8.84744 18.487841,11.97745 13.73027,4.0064 16.60986,5.96788 16.60986,11.22626 0,2.54574 -0.45906,3.79772 -2.12839,5.55054 -2.29534,2.50399 -8.72227,3.79771 -14.0224,2.87959 -5.00799,-0.87639 -8.05453,-2.62921 -13.47985,-7.6372 -2.0032,-1.83626 -2.33706,-2.0032 -4.340261,-2.0032 -1.9197299,0 -2.2953299,0.1668 -3.7559899,1.6276 -1.21028,1.21027 -1.6275997,1.96148 -1.6275997,2.92134 0,4.84106 8.2631906,11.4349 17.3193106,13.85545 5.008,1.33545 13.06253,1.33545 17.31932,0 10.72547,-3.33867 15.942124,-9.97424 15.316114,-19.44773 -0.50079,-8.51358 -5.383594,-13.35466 -16.985444,-16.90197 -14.23104,-4.38198 -16.44291,-5.38359 -17.94532,-8.30492 -0.91814,-1.8363 -1.08505,-4.71586 -0.3756,-6.59387 1.1268,-3.04651 4.25679,-4.71586 9.55691,-5.00799 5.84268,-0.3756 10.72547,1.29372 14.94055,5.09144 1.71106,1.54415 2.58745,2.0032 3.96464,2.17017 3.25522,0.33385 6.051334,-2.62922 5.425334,-5.71748 -0.29214,-1.6276 -3.630794,-5.34187 -6.301724,-7.05292 -2.79613,-1.79454 -7.21986,-3.38039 -11.35146,-4.04815 -3.88119,-0.62599 -6.05132,-0.66771 -9.64038,-0.12522 z"
       id="path16-7"
       inkscape:export-xdpi="600"
       inkscape:export-ydpi="600" />
    <path
       style="fill:#ffffff;stroke-width:0.03527777"
       inkscape:connector-curvature="0"
       d="m 92.515253,223.98983 c -16.94371,2.96307 -28.12823,18.73825 -26.25023,37.05918 1.87801,18.86345 17.56972,31.71731 36.015837,29.54714 15.77518,-1.83624 26.95971,-13.43808 28.5873,-29.54714 0.95986,-9.43175 -1.62759,-18.82175 -7.01119,-25.58251 -7.42853,-9.34828 -19.11385,-13.60507 -31.341717,-11.47667 z m 9.181317,10.64197 c 4.17335,0.66774 9.05615,3.25523 11.68533,6.17655 3.96466,4.42373 5.8844,9.72385 5.8844,16.40117 0,6.96947 -2.0032,12.31135 -6.30171,16.65161 -6.21827,6.30171 -15.107451,7.80412 -23.287187,3.96465 -5.30014,-2.50402 -9.59866,-7.84587 -11.14278,-13.93892 -0.87641,-3.38042 -0.87641,-9.84907 0,-13.18769 2.46225,-9.55694 10.0577,-15.90043 19.614646,-16.44295 0.45904,0 2.044921,0.1668 3.547301,0.37558 z"
       id="path18-5"
       inkscape:export-xdpi="600"
       inkscape:export-ydpi="600" />
    <path
       style="fill:#ffffff;stroke-width:0.03527777"
       inkscape:connector-curvature="0"
       d="m 167.71866,223.82291 c -12.3113,1.58583 -22.36905,10.93413 -25.79117,23.95489 -1.16853,4.42373 -1.08508,15.0657 0.16702,19.61465 3.04653,10.93411 10.68373,19.1973 20.44935,22.07692 10.85061,3.17171 26.04156,0.3756 31.80074,-5.84269 1.50241,-1.62758 1.66934,-2.04492 1.66934,-3.96466 0,-1.87798 -0.16706,-2.29531 -1.41894,-3.54731 -1.25198,-1.25199 -1.66933,-1.41893 -3.58907,-1.41893 -1.83626,0 -2.50399,0.25041 -4.13157,1.41893 -2.87962,2.08668 -4.38201,2.75441 -7.84588,3.42214 -4.21505,0.79291 -6.88596,0.75118 -10.60024,-0.20861 -3.8812,-1.00161 -6.42694,-2.42053 -9.22308,-5.17491 -3.96462,-3.92294 -6.05131,-8.88921 -6.42692,-15.31614 -0.9181,-15.56654 10.43332,-26.41716 25.41559,-24.20532 3.67255,0.54254 4.71585,0.95989 7.88757,3.21348 5.00803,3.58906 9.93254,1.46064 9.43174,-4.08985 -0.37561,-3.6308 -3.54733,-6.46868 -9.51519,-8.47188 -5.38361,-1.79452 -11.894,-2.29531 -18.27919,-1.46064 z"
       id="path20-4"
       inkscape:export-xdpi="600"
       inkscape:export-ydpi="600" />
    <path
       style="fill:#ffffff;stroke-width:0.03527777"
       inkscape:connector-curvature="0"
       d="m 259.0311,223.98983 c -14.31449,2.50399 -24.53918,13.85545 -26.25021,29.17156 -2.12842,19.11386 9.97423,35.13943 28.29517,37.43476 13.85548,1.71107 26.91796,-5.30012 32.9693,-17.69491 2.04491,-4.08985 2.87959,-7.17812 3.33862,-12.06092 2.21194,-23.28717 -15.9838,-40.7317 -38.35288,-36.85049 z m 9.18133,10.64197 c 4.04815,0.66774 8.38842,2.87962 11.22627,5.75922 4.21507,4.34026 6.30174,9.89077 6.30174,16.77675 0,2.21187 -0.29216,5.13324 -0.62604,6.46871 -3.50557,13.73023 -18.07047,20.3658 -30.08967,13.68851 -2.79615,-1.54415 -6.34347,-5.25843 -7.97105,-8.2632 -3.63083,-6.92772 -3.67255,-16.90199 0,-23.70452 3.42209,-6.46865 10.09943,-10.68372 17.61143,-11.10105 0.45908,0 2.04491,0.1668 3.54732,0.37558 z"
       id="path22-1"
       inkscape:export-xdpi="600"
       inkscape:export-ydpi="600" />
    <path
       style="fill:#ffffff;stroke-width:0.03527777"
       inkscape:connector-curvature="0"
       d="m 444.7443,223.98983 c -3.67249,0.66773 -8.80575,3.13 -12.1444,5.75919 -4.59068,3.67253 -8.5971,10.18293 -10.47506,17.06891 -0.83461,2.96309 -0.95983,4.46548 -0.95983,10.34984 0,8.22148 0.54252,10.642 3.63079,17.11066 1.83627,3.83949 2.54575,4.79933 5.92612,8.13802 2.92131,2.92132 4.50717,4.1316 6.92771,5.30013 10.8924,5.30012 22.32734,3.75597 30.88265,-4.1316 l 2.92129,-2.71268 v 2.04495 c 0,3.6308 2.08671,6.25999 5.25841,6.63559 2.08669,0.25039 4.2151,-0.79293 5.46711,-2.71266 l 0.95988,-1.41894 v -28.54557 c 0,-31.04958 0.083,-29.88105 -2.33709,-31.80078 -1.54411,-1.21026 -5.46711,-1.21026 -6.92769,-0.0418 -1.50241,1.16853 -2.42062,3.33867 -2.42062,5.71747 v 2.04493 l -2.04489,-1.96146 c -6.09303,-5.88441 -15.69169,-8.55535 -24.66438,-6.84428 z m 10.85064,10.64197 c 10.22464,1.91973 16.77684,11.72708 16.15083,24.1636 -0.5426,11.3932 -7.09467,19.48943 -17.0272,21.03356 -10.05774,1.54413 -19.57293,-5.63398 -21.86827,-16.60983 -1.83628,-8.72227 0.5425,-18.0288 5.92611,-23.45409 4.34028,-4.29854 10.76722,-6.26002 16.81853,-5.13324 z"
       id="path24-8"
       inkscape:export-xdpi="600"
       inkscape:export-ydpi="600" />
    <path
       style="fill:#ffffff;stroke-width:0.03527777"
       inkscape:connector-curvature="0"
       d="m 567.85757,223.98983 c -16.5264,3.33864 -26.75109,20.49104 -23.5794,39.64665 0.79301,4.84103 1.41902,6.88598 3.3804,10.80889 3.8813,7.88759 10.64202,13.3964 18.94692,15.5248 3.6726,0.95984 10.26639,0.95984 13.56338,0 3.9229,-1.16851 8.72221,-3.88119 11.4349,-6.46866 l 2.46232,-2.37878 0.2504,2.37878 c 0.37558,3.08824 1.62758,5.00797 3.7977,5.71745 3.42209,1.12681 6.80249,-0.66773 7.72059,-4.08985 0.29221,-1.12683 0.41741,-10.80894 0.3339,-29.29678 -0.1252,-26.25024 -0.16681,-27.75265 -0.9181,-28.9629 -1.12681,-1.83627 -2.71269,-2.67092 -5.25841,-2.67092 -1.96149,0 -2.33709,0.1668 -3.756,1.58583 -1.4189,1.37722 -1.62758,1.91974 -1.91968,4.17332 l -0.29221,2.58747 -2.37881,-2.21186 c -5.96779,-5.55052 -15.35779,-8.05449 -23.7879,-6.34344 z m 9.93252,10.64197 c 7.72059,1.08508 13.93888,7.13641 16.1508,15.64999 0.79287,3.04654 0.91807,9.55694 0.20859,12.93734 -2.08661,10.43331 -10.97581,17.61147 -20.5745,16.69333 -4.9245,-0.50082 -8.3467,-2.04493 -11.56009,-5.21668 -4.79941,-4.71587 -6.80263,-9.93255 -6.80263,-17.52801 0,-7.59543 2.04502,-12.89556 6.76082,-17.52797 3.4222,-3.38037 7.0947,-4.96625 12.56178,-5.34185 0.33383,-0.0418 1.79451,0.12521 3.25512,0.33385 z"
       id="path26-9"
       inkscape:export-xdpi="600"
       inkscape:export-ydpi="600" />
    <path
       style="fill:#ffffff;stroke-width:0.03527777"
       inkscape:connector-curvature="0"
       d="m 338.32441,224.40715 c -5.13318,1.252 -10.68374,4.71589 -13.3964,8.34667 -0.79293,1.00161 -1.54414,1.87798 -1.71107,1.87798 -0.20865,0 -0.33385,-1.25197 -0.33385,-2.83785 0,-3.25518 -0.87638,-5.09149 -2.96307,-6.17655 -1.87803,-0.95984 -5.04978,-0.62598 -6.51039,0.70946 -2.25358,2.0867 -2.21189,1.54416 -2.21189,30.71575 0,17.15237 0.16682,27.58571 0.4173,28.5873 1.16856,4.21506 6.63568,5.3001 9.84909,1.96145 l 1.21026,-1.252 0.20862,-19.48943 c 0.25041,-19.23907 0.25041,-19.53118 1.21023,-21.99345 1.41897,-3.50559 5.55057,-7.63721 9.01441,-8.97266 6.96944,-2.67093 14.31452,-1.00161 17.44454,3.96464 2.37879,3.71429 2.50401,4.96629 2.67091,26.08335 0.0834,12.6869 0.33391,19.82329 0.62601,20.57449 0.70948,1.83627 2.67091,2.96307 5.17496,2.96307 2.67091,0 4.13154,-0.91814 5.21663,-3.21348 0.7095,-1.62757 0.79293,-3.00479 0.79293,-19.94852 0,-19.86504 0.0418,-20.4493 2.46226,-24.24702 4.59065,-7.26161 16.48465,-9.76561 22.95329,-4.79936 2.12844,1.62763 4.04816,5.30015 4.63243,8.84748 0.20858,1.3772 0.41738,10.6837 0.41738,20.65799 0,16.44292 0.0834,18.27918 0.75118,19.5729 1.08503,2.17012 2.71259,3.17174 5.09143,3.17174 2.37877,0 4.0064,-1.00162 5.09149,-3.17174 0.66773,-1.29372 0.75117,-3.1717 0.75117,-20.40755 0,-21.284 -0.29215,-24.9148 -2.50399,-30.21493 -2.37878,-5.67572 -6.25998,-9.26478 -11.72704,-10.93413 -3.96471,-1.16852 -10.47507,-1.08508 -14.52319,0.20862 -5.09149,1.66932 -11.47662,6.42693 -14.06412,10.51681 l -1.04335,1.66934 -1.46069,-2.96309 c -1.83623,-3.63078 -4.96626,-6.886 -8.01277,-8.22147 -4.88281,-2.1701 -10.72544,-2.75438 -15.52477,-1.58585 z"
       id="path28-6"
       inkscape:export-xdpi="600"
       inkscape:export-ydpi="600" />
    <path
       style="fill:#ffffff;stroke-width:0.03527777"
       inkscape:connector-curvature="0"
       d="m 211.07955,224.90795 c -0.79293,0.41735 -1.83623,1.29374 -2.29531,1.91973 -0.87641,1.16855 -0.87641,1.58588 -1.00161,29.63064 -0.0836,26.45893 -0.0418,28.54558 0.62601,29.88104 2.12838,4.13162 7.42852,4.38201 10.01598,0.50082 l 0.95986,-1.41894 v -28.42038 c 0,-27.41877 -0.0418,-28.46209 -0.83468,-29.75583 -1.62756,-2.71266 -4.88276,-3.71427 -7.47025,-2.33708 z"
       id="path30-5"
       inkscape:export-xdpi="600"
       inkscape:export-ydpi="600" />
  </g>
</svg>
